<svg width="99" height="50" viewBox="0 0 99 50" fill="none" xmlns="http://www.w3.org/2000/svg">
<g clip-path="url(#clip0_7_43)">
<path fill-rule="evenodd" clip-rule="evenodd" d="M20.0489 19.7134C21.6122 18.4466 24.2131 16.8412 24.3164 15.9389C24.5753 13.7536 27.9706 18.0448 26.404 23.3469C24.7755 28.8854 17.4592 33.5281 13.5857 21.1211C15.8402 29.8687 21.3819 28.3119 16.7633 31.6101C15.3604 32.6161 13.6874 26.4409 12.526 25.4382C10.6862 23.8474 7.89785 18.4028 10.1015 11.7012C13.0376 2.7446 10.0316 3.79107 11.0214 2.67656C11.9334 1.67383 16.9762 5.17773 18.6158 7.20102C23.0787 12.7201 20.3412 19.7134 20.0489 19.7134Z" fill="#1A3A42"/>
<path fill-rule="evenodd" clip-rule="evenodd" d="M24.3625 21.3657C20.3301 34.8403 6.54264 25.4447 13.2155 6.16105C15.532 5.60811 16.4673 11.8594 16.0213 24.915C17.2468 25.0856 19.9478 22.8296 24.1241 18.1469C26.0577 18.3899 24.5293 21.3657 24.3625 21.3657Z" fill="#1A3A42"/>
<path fill-rule="evenodd" clip-rule="evenodd" d="M17.9787 29.6694C13.4951 25.0899 11.4202 19.6567 13.0408 13.1721C14.7884 6.1902 13.3124 6.98073 13.9337 6.87381C15.8164 14.0614 10.5527 17.5313 16.8157 26.0926C18.1837 27.8486 17.7992 27.9426 18.3028 25.7363C20.4207 21.0773 22.3526 22.1724 24.6579 18.7851C24.5404 20.4051 20.7877 23.052 19.9726 24.3561C14.342 33.3694 30.6493 26.969 24.9455 16.0151C24.6834 18.2425 17.4878 20.695 17.4433 24.7222C17.2177 24.3383 16.9937 23.9527 16.768 23.5672C22.5798 17.3062 22.3812 7.15244 11.4837 3.11072C14.0512 8.83717 5.20645 18.9633 13.4856 25.4042C16.2453 32.5205 16.633 31.2035 17.9787 29.6694Z" fill="#397C93"/>
<path fill-rule="evenodd" clip-rule="evenodd" d="M24.6452 16.7213C23.2518 18.7706 17.4766 21.1162 17.4369 24.7222C19.4403 20.3338 25.9258 16.7213 24.6452 16.7213Z" fill="#439DB5"/>
<path fill-rule="evenodd" clip-rule="evenodd" d="M16.7617 23.5736C22.5734 17.3126 22.3748 7.15891 11.4774 3.11719C22.8817 8.47915 18.6809 23.5736 16.7617 23.5736Z" fill="#439DB5"/>
<path fill-rule="evenodd" clip-rule="evenodd" d="M16.3994 31.0853C19.3657 28.9794 17.0461 30.17 14.1847 24.4873C13.832 24.5359 13.4745 24.5877 13.1075 24.6493C7.27504 13.6338 15.0998 8.62657 11.4774 3.11395C14.0734 8.89224 5.56232 17.9233 12.9295 24.9506C13.0963 25.0996 16.5663 31.0853 16.3994 31.0853ZM15.6622 24.3188C18.6603 29.6014 17.4607 26.8896 19.0749 24.1568C17.305 24.1422 17.4401 24.0904 17.4321 24.7173C16.946 23.8831 17.2717 24.3188 15.6622 24.3188ZM18.522 27.9134C15.8434 29.9351 31.0226 27.7045 24.936 16.0151C26.0354 19.8133 25.9004 22.7685 24.5308 24.8809C18.3219 22.9872 19.9933 25.2616 18.522 27.9134Z" fill="#28535E"/>
<path fill-rule="evenodd" clip-rule="evenodd" d="M6.11359 35.2955C-1.27744 35.012 -2.21641 24.6428 4.65827 24.6898C4.81715 24.6898 31.0988 22.5839 31.0988 24.915C31.0988 35.4947 28.2581 42.8962 17.9532 42.8962H15.4827C9.09733 42.8978 6.41705 35.2955 6.11359 35.2955ZM4.73135 27.9086C2.51658 27.9086 2.72789 30.089 4.19911 31.2213C4.9935 31.824 4.60425 32.0151 4.73135 27.9086Z" fill="#1A3A42"/>
<path fill-rule="evenodd" clip-rule="evenodd" d="M32.7083 45.7051C12.1891 50.6783 -4.85853 43.7369 3.64624 43.7369C34.5052 43.7369 33.9174 43.2623 33.992 44.6101C34.0143 44.8822 33.7998 45.7051 32.7083 45.7051Z" fill="#1A3A42"/>
<path fill-rule="evenodd" clip-rule="evenodd" d="M32.4478 44.5776C36.1862 44.5776 19.0511 48.6453 3.5875 44.9681C0.421049 44.2164 32.6178 44.5776 32.4478 44.5776Z" fill="#28535E"/>
<path fill-rule="evenodd" clip-rule="evenodd" d="M9.3532 46.0907C-1.63801 44.4562 3.46199 44.576 9.3532 44.576V46.0907Z" fill="#2F6470"/>
<path fill-rule="evenodd" clip-rule="evenodd" d="M9.69478 46.1425C9.69478 44.056 8.93693 44.5776 13.4793 44.5776C13.4793 46.9103 14.2323 46.7807 9.69478 46.1425Z" fill="#397C93"/>
<path fill-rule="evenodd" clip-rule="evenodd" d="M13.7986 46.5378C13.7986 43.9459 12.9343 44.5777 17.5847 44.5777C17.5847 47.0513 18.3409 46.5378 13.7986 46.5378Z" fill="#439DB5"/>
<path fill-rule="evenodd" clip-rule="evenodd" d="M17.9247 42.0408V24.9149H5.59413V25.5791C-1.61101 25.213 0.0333822 33.5297 5.52899 34.377C8.69226 34.8678 7.58805 42.0408 17.9247 42.0408ZM5.59413 27.0792C5.59413 27.2412 5.40983 32.851 5.75301 32.9109C2.29899 32.3666 1.12806 28.0592 3.55095 27.1764C4.11656 26.9625 5.76095 27.0743 5.59413 27.0743V27.0792Z" fill="#28535E"/>
<path fill-rule="evenodd" clip-rule="evenodd" d="M13.4792 25.2422H9.67408C9.67408 37.518 8.43642 39.6725 13.4792 41.3783V25.2422Z" fill="#397C93"/>
<path fill-rule="evenodd" clip-rule="evenodd" d="M17.6038 41.7169C17.6038 21.9732 18.8748 25.2503 13.7907 25.2503C13.7907 43.3352 13.0948 41.7169 15.4748 41.7169H17.6038Z" fill="#439DB5"/>
<path fill-rule="evenodd" clip-rule="evenodd" d="M9.35316 25.2422H5.91185C5.91185 26.5268 4.8569 25.456 3.16643 26.0635C0.829327 26.9123 0.109608 30.6284 3.00755 32.8445C5.21278 34.539 6.72531 33.8991 6.91755 34.2927C10.2604 41.0235 9.35316 38.8852 9.35316 25.2422ZM5.91185 27.0743C5.91185 33.8667 6.44091 32.7554 6.17876 33.115C4.73456 35.1578 -2.36095 26.3535 5.6068 26.7503C5.77363 26.7568 6.07867 27.0743 5.91185 27.0743V27.0743Z" fill="#2F6470"/>
<path fill-rule="evenodd" clip-rule="evenodd" d="M26.1752 46.0907C37.1664 44.4562 32.0664 44.576 26.1752 44.576V46.0907Z" fill="#2F6470"/>
<path fill-rule="evenodd" clip-rule="evenodd" d="M25.8304 46.1425C25.8304 44.056 26.5883 44.5776 22.046 44.5776C22.0491 46.9103 21.2913 46.7807 25.8304 46.1425Z" fill="#397C93"/>
<path fill-rule="evenodd" clip-rule="evenodd" d="M21.7298 46.5378C21.7298 43.9459 22.5941 44.5777 17.9453 44.5777C17.9453 47.0513 17.1875 46.5378 21.7298 46.5378Z" fill="#439DB5"/>
<path fill-rule="evenodd" clip-rule="evenodd" d="M17.6038 42.0408V24.9149C32.1507 24.9149 29.9343 24.301 29.9343 27.0743C29.9343 38.0121 25.0361 42.0408 17.6038 42.0408Z" fill="#28535E"/>
<path fill-rule="evenodd" clip-rule="evenodd" d="M22.0491 25.2422H25.8543C25.8543 37.518 27.0935 39.6725 22.0491 41.3783V25.2422Z" fill="#397C93"/>
<path fill-rule="evenodd" clip-rule="evenodd" d="M17.9247 41.7169C17.9247 21.9732 16.6536 25.2503 21.7298 25.2503C21.7298 43.3578 22.4209 41.7169 20.0489 41.7169H17.9247Z" fill="#439DB5"/>
<path fill-rule="evenodd" clip-rule="evenodd" d="M26.1752 25.2422C30.3061 25.2422 29.6165 24.6104 29.6165 27.5392C29.7834 27.5392 30.716 32.5416 26.1752 38.2308V25.2422Z" fill="#2F6470"/>
</g>
<path d="M63.55 28.7C62.93 28.7 62.24 28.6 61.48 28.4C60.72 28.22 59.88 27.94 58.96 27.56C58.4 27.32 57.71 26.99 56.89 26.57C56.07 26.17 55.13 25.68 54.07 25.1C53.01 24.52 52.11 24.04 51.37 23.66C50.65 23.28 50.08 23 49.66 22.82C49.04 23.52 48.45 24.12 47.89 24.62C47.35 25.12 46.85 25.52 46.39 25.82C45.09 26.64 43.68 27.05 42.16 27.05C41.34 27.05 40.53 26.77 39.73 26.21C38.89 25.61 38.47 24.92 38.47 24.14C38.47 23.04 39.02 22.21 40.12 21.65C41 21.19 42.04 20.96 43.24 20.96C43.82 20.96 44.5 21.03 45.28 21.17C46.06 21.31 46.93 21.53 47.89 21.83C48.51 20.99 49.16 19.93 49.84 18.65C49.74 18.67 49.63 18.68 49.51 18.68C49.41 18.68 49.3 18.68 49.18 18.68C44.98 18.68 42.88 17.19 42.88 14.21C42.88 12.63 43.73 11.39 45.43 10.49C45.49 10.43 45.56 10.4 45.64 10.4C45.7 10.4 45.73 10.43 45.73 10.49C45.73 10.53 45.72 10.56 45.7 10.58C44.44 11.02 43.81 11.94 43.81 13.34C43.81 14.86 44.51 16.07 45.91 16.97C47.11 17.75 48.5 18.15 50.08 18.17C50.54 17.35 51.08 16.24 51.7 14.84C52.48 13.18 53.15 11.81 53.71 10.73C54.29 9.63 54.75 8.83 55.09 8.33C56.83 5.73 58.69 4.43 60.67 4.43C60.89 4.43 61 4.46 61 4.52C61 4.58 60.89 4.61 60.67 4.61C58.77 4.61 56.96 5.95 55.24 8.63C54.68 9.53 53.59 11.71 51.97 15.17C51.69 15.77 51.43 16.32 51.19 16.82C50.95 17.32 50.72 17.77 50.5 18.17C50.82 18.15 51.14 18.13 51.46 18.11C51.8 18.09 52.13 18.05 52.45 17.99C52.55 17.89 52.67 17.69 52.81 17.39C52.95 17.09 53.12 16.69 53.32 16.19C53.44 15.87 53.56 15.55 53.68 15.23C53.8 14.91 53.93 14.59 54.07 14.27C56.87 7.87 59.99 4.67 63.43 4.67C64.13 4.67 64.69 4.91 65.11 5.39C65.53 5.87 65.74 6.48 65.74 7.22C65.74 10.2 62.48 13.36 55.96 16.7C55.64 16.84 55.32 17 55 17.18C54.68 17.34 54.35 17.5 54.01 17.66C53.87 17.7 53.7 17.77 53.5 17.87C53.32 17.97 53.1 18.08 52.84 18.2C52.84 18.2 52.77 18.31 52.63 18.53C52.51 18.73 52.32 19.03 52.06 19.43C51.74 19.93 51.41 20.44 51.07 20.96C50.73 21.46 50.38 21.95 50.02 22.43C51.32 22.93 52.61 23.43 53.89 23.93C55.17 24.43 56.45 24.93 57.73 25.43C59.35 26.05 60.81 26.5 62.11 26.78C63.43 27.08 64.58 27.23 65.56 27.23C67.52 27.23 68.5 26.66 68.5 25.52C68.5 24.78 68.16 23.89 67.48 22.85C67.64 22.93 67.79 23.05 67.93 23.21C68.09 23.39 68.24 23.62 68.38 23.9C68.54 24.16 68.65 24.41 68.71 24.65C68.79 24.89 68.83 25.1 68.83 25.28C68.83 26.32 68.19 27.18 66.91 27.86C65.85 28.42 64.73 28.7 63.55 28.7ZM53.08 17.78C54.02 17.44 55.1 16.9 56.32 16.16C57.54 15.4 58.9 14.41 60.4 13.19C63.74 10.49 65.41 8.36 65.41 6.8C65.41 6.36 65.23 6.04 64.87 5.84C64.53 5.64 64.12 5.54 63.64 5.54C62.54 5.54 61.29 6.25 59.89 7.67C58.49 9.09 56.96 11.23 55.3 14.09C55.04 14.53 54.73 15.06 54.37 15.68C54.01 16.3 53.58 17 53.08 17.78ZM49.57 22.34C49.75 22.16 50.06 21.74 50.5 21.08C50.94 20.42 51.52 19.53 52.24 18.41C51.9 18.45 51.56 18.49 51.22 18.53C50.9 18.57 50.58 18.6 50.26 18.62C49.9 19.28 49.55 19.88 49.21 20.42C48.87 20.96 48.54 21.46 48.22 21.92C48.52 22.02 48.78 22.11 49 22.19C49.24 22.25 49.43 22.3 49.57 22.34ZM42.46 26.27C42.98 26.27 43.55 26.17 44.17 25.97C44.79 25.79 45.47 25.51 46.21 25.13C46.97 24.75 47.6 24.36 48.1 23.96C48.62 23.56 49.03 23.15 49.33 22.73C49.05 22.55 48.61 22.36 48.01 22.16C46.37 24.28 44.56 25.34 42.58 25.34C42.28 25.34 42.13 25.3 42.13 25.22C42.13 25.16 42.27 25.13 42.55 25.13C44.41 25.13 46.13 24.11 47.71 22.07C45.85 21.47 44.37 21.17 43.27 21.17C42.31 21.17 41.42 21.35 40.6 21.71C39.58 22.19 39.07 22.86 39.07 23.72C39.07 24.46 39.46 25.09 40.24 25.61C40.86 26.05 41.6 26.27 42.46 26.27ZM57.4506 23.12C57.2306 23.12 57.1206 23.06 57.1206 22.94C57.1206 22.22 57.4106 21.3 57.9906 20.18C58.7106 18.78 59.1306 17.87 59.2506 17.45C59.4506 16.73 59.5506 15.88 59.5506 14.9C59.5106 15.1 59.3806 15.4 59.1606 15.8C58.9606 16.18 58.6906 16.66 58.3506 17.24C58.0306 17.8 57.7406 18.27 57.4806 18.65C57.2406 19.01 57.0406 19.3 56.8806 19.52C56.8806 19.54 56.8606 19.55 56.8206 19.55C56.7206 19.55 56.6706 19.51 56.6706 19.43C56.6706 19.43 56.7406 19.3 56.8806 19.04C57.0406 18.78 57.2706 18.4 57.5706 17.9C58.5306 16.22 59.1506 14.81 59.4306 13.67C59.5506 13.15 59.7906 12.89 60.1506 12.89C60.5106 12.89 60.6906 13.31 60.6906 14.15C60.6906 14.59 60.6306 15.14 60.5106 15.8C60.3906 16.46 60.1906 17.22 59.9106 18.08C59.7106 18.74 59.5006 19.4 59.2806 20.06C59.0806 20.72 58.8706 21.37 58.6506 22.01C59.3906 21.45 60.1006 20.81 60.7806 20.09C61.4806 19.37 62.1106 18.54 62.6706 17.6L62.8506 17.3C62.9506 16.58 63.0706 15.99 63.2106 15.53C63.3706 15.07 63.5206 14.74 63.6606 14.54C63.7806 14.4 63.9606 14.33 64.2006 14.33C64.6206 14.33 64.8306 14.44 64.8306 14.66C64.8306 15.26 64.6406 15.81 64.2606 16.31C63.8206 17.81 63.6006 19.27 63.6006 20.69C63.6006 21.65 63.9006 22.13 64.5006 22.13C64.8006 22.13 65.1506 21.96 65.5506 21.62C65.9506 21.28 66.1406 21.11 66.1206 21.11C66.1806 21.11 66.2106 21.17 66.2106 21.29V21.35C65.5306 22.31 64.7706 22.79 63.9306 22.79C63.0706 22.79 62.6406 22.05 62.6406 20.57C62.6406 20.21 62.6506 19.82 62.6706 19.4C62.7106 18.98 62.7506 18.52 62.7906 18.02C62.0306 19.46 60.7806 20.86 59.0406 22.22C58.9406 22.3 58.8006 22.41 58.6206 22.55C58.4406 22.69 58.2406 22.84 58.0206 23C57.9206 23.08 57.7306 23.12 57.4506 23.12ZM65.5769 23.63C65.3969 23.63 65.3069 23.5 65.3069 23.24V23.18C65.3869 22.9 65.4669 22.55 65.5469 22.13C65.6469 21.71 65.7569 21.22 65.8769 20.66C65.9969 20.1 66.1469 19.4 66.3269 18.56C66.5069 17.7 66.7269 16.71 66.9869 15.59C66.9669 15.55 66.9269 15.46 66.8669 15.32C66.8269 15.16 66.7569 14.96 66.6569 14.72C66.5569 14.46 66.4769 14.27 66.4169 14.15C66.3569 14.03 66.3269 13.97 66.3269 13.97C66.3269 13.83 66.4969 13.7 66.8369 13.58C67.8369 13.2 68.4769 13.01 68.7569 13.01C69.0569 13.01 69.2069 13.1 69.2069 13.28C69.1869 13.22 68.6769 14.5 67.6769 17.12V17.39C67.6769 17.95 67.5869 18.23 67.4069 18.23C67.3869 18.23 67.3569 18.2 67.3169 18.14C67.1569 18.64 66.9969 19.12 66.8369 19.58C66.6969 20.02 66.5669 20.46 66.4469 20.9C66.8869 20.18 67.3369 19.49 67.7969 18.83C68.2769 18.17 68.7669 17.55 69.2669 16.97C70.7669 15.23 72.0069 14.36 72.9869 14.36C73.4469 14.36 73.6769 14.54 73.6769 14.9C73.6769 15.02 73.6469 15.17 73.5869 15.35C73.4069 16.03 73.1769 16.89 72.8969 17.93C72.6369 18.95 72.3169 20.14 71.9369 21.5C73.0969 20.64 73.9969 19.72 74.6369 18.74C74.7369 18.62 74.8069 18.56 74.8469 18.56C74.9069 18.56 74.9369 18.6 74.9369 18.68C74.9369 18.72 74.9069 18.79 74.8469 18.89C73.9669 20.45 72.8969 21.69 71.6369 22.61C71.5569 22.73 71.4269 22.79 71.2469 22.79C71.1069 22.79 71.0369 22.71 71.0369 22.55C71.0369 22.51 71.0569 22.33 71.0969 22.01C71.1569 21.67 71.2469 21.2 71.3669 20.6C71.4669 20.16 71.5569 19.73 71.6369 19.31C71.7169 18.89 71.7969 18.46 71.8769 18.02C71.9769 17.52 72.0369 17.06 72.0569 16.64C72.0969 16.2 72.1269 15.8 72.1469 15.44C71.7069 15.64 71.2269 15.97 70.7069 16.43C70.2069 16.87 69.6469 17.43 69.0269 18.11C67.8869 19.37 67.0669 20.47 66.5669 21.41C66.2869 21.95 66.0769 22.53 65.9369 23.15C65.8569 23.47 65.7369 23.63 65.5769 23.63ZM67.1669 14.78L67.4369 13.79C67.3369 13.87 67.1469 13.97 66.8669 14.09C66.9269 14.21 66.9769 14.33 67.0169 14.45C67.0769 14.57 67.1269 14.68 67.1669 14.78ZM80.2495 23.42C79.7095 23.42 79.2895 23.14 78.9895 22.58C78.7495 22.12 78.6295 21.59 78.6295 20.99C78.6295 20.69 78.6495 20.36 78.6895 20C78.7495 19.62 78.8295 19.21 78.9295 18.77C77.6695 21.57 76.3695 22.97 75.0295 22.97C74.2095 22.97 73.7995 22.44 73.7995 21.38C73.7995 19.68 74.6195 17.92 76.2595 16.1C77.9195 14.24 79.5695 13.31 81.2095 13.31C81.9895 13.31 82.3795 13.65 82.3795 14.33C82.3795 15.17 81.8195 16.01 80.6995 16.85C80.1195 18.29 79.8295 19.77 79.8295 21.29C79.8295 22.43 80.0795 23 80.5795 23C81.2395 23 82.4395 21.74 84.1795 19.22C84.2995 19.06 84.3895 18.98 84.4495 18.98C84.5095 18.98 84.5395 19.02 84.5395 19.1C84.5395 19.2 84.4995 19.3 84.4195 19.4C82.6195 22.08 81.2295 23.42 80.2495 23.42ZM75.1495 22.04C76.4095 22.04 77.6295 20.64 78.8095 17.84C78.6495 17.88 78.4995 17.92 78.3595 17.96C78.2395 17.98 78.1295 17.99 78.0295 17.99C77.9495 17.99 77.9095 17.96 77.9095 17.9C77.9095 17.8 78.0495 17.7 78.3295 17.6C78.4295 17.54 78.5595 17.47 78.7195 17.39C78.8795 17.29 79.0595 17.18 79.2595 17.06C79.2995 16.72 79.5095 16.28 79.8895 15.74C80.2695 15.18 80.6295 14.9 80.9695 14.9C81.0895 14.9 81.1495 14.99 81.1495 15.17C81.1495 15.31 81.0995 15.53 80.9995 15.83C81.3195 15.39 81.4795 14.96 81.4795 14.54C81.4795 14.08 81.2695 13.85 80.8495 13.85C79.8495 13.85 78.5395 14.83 76.9195 16.79C75.2995 18.77 74.4895 20.29 74.4895 21.35C74.4895 21.81 74.7095 22.04 75.1495 22.04ZM86.1025 11.9C86.0825 11.88 86.0725 11.87 86.0725 11.87C86.0725 11.79 86.1325 11.68 86.2525 11.54C86.3925 11.4 86.5725 11.17 86.7925 10.85C87.0325 10.51 87.3225 10.08 87.6625 9.56L87.6025 9.59C87.3025 9.59 87.1525 9.38 87.1525 8.96C87.1525 8.68 87.2425 8.49 87.4225 8.39C87.6425 8.23 87.8725 8.15 88.1125 8.15C88.2325 8.15 88.3525 8.23 88.4725 8.39C88.6125 8.53 88.6825 8.69 88.6825 8.87C88.6825 9.25 88.3425 9.85 87.6625 10.67C86.9625 11.49 86.4425 11.9 86.1025 11.9ZM92.7588 23.36C91.8188 23.36 90.9688 22.97 90.2087 22.19C89.4687 21.39 89.0987 20.52 89.0987 19.58C89.0987 18.96 89.2587 18.65 89.5788 18.65C89.7788 18.65 89.9788 18.8 90.1788 19.1C90.7788 17.7 91.6288 16.12 92.7288 14.36C93.4288 13.28 94.2488 12.74 95.1888 12.74C95.3888 12.74 95.6188 12.81 95.8788 12.95C96.1588 13.11 96.2988 13.28 96.2988 13.46C96.2988 13.6 96.1688 13.67 95.9088 13.67C95.8888 13.67 95.8588 13.67 95.8188 13.67C95.7788 13.67 95.7288 13.66 95.6688 13.64H95.4288C94.9688 13.64 94.5788 13.77 94.2588 14.03C93.9188 14.31 93.7488 14.66 93.7488 15.08C93.7488 15.24 93.7788 15.41 93.8388 15.59C93.9588 15.99 94.0788 16.39 94.1988 16.79C94.3188 17.19 94.4388 17.59 94.5588 17.99C94.6988 18.47 94.7988 18.92 94.8588 19.34C94.9388 19.74 94.9788 20.11 94.9788 20.45C95.5188 20.37 95.9788 20.17 96.3588 19.85C96.5988 19.65 96.9188 19.25 97.3188 18.65C97.3788 18.57 97.4388 18.53 97.4988 18.53C97.5588 18.53 97.5888 18.57 97.5888 18.65C97.5888 18.73 97.5688 18.8 97.5288 18.86C96.8488 20 96.0088 20.67 95.0088 20.87C94.9488 21.57 94.7388 22.15 94.3788 22.61C93.9988 23.11 93.4588 23.36 92.7588 23.36ZM93.7488 20.84C93.7688 20.76 93.7788 20.69 93.7788 20.63C93.7788 20.57 93.7788 20.5 93.7788 20.42C93.7788 20.16 93.7288 19.81 93.6287 19.37C93.5488 18.91 93.4288 18.35 93.2688 17.69C92.9688 16.43 92.8588 15.59 92.9388 15.17C92.4188 15.71 91.5688 17.15 90.3888 19.49C90.7688 19.69 91.0888 19.87 91.3488 20.03C91.6288 20.17 91.8488 20.28 92.0088 20.36C92.6088 20.64 93.1888 20.8 93.7488 20.84ZM92.1288 22.37C92.9288 22.37 93.4588 21.98 93.7188 21.2C92.1188 21.2 90.8988 20.87 90.0588 20.21C90.0988 20.67 90.3388 21.14 90.7788 21.62C91.2188 22.12 91.6688 22.37 92.1288 22.37ZM38.448 46.504C37.9147 46.504 37.648 46.3227 37.648 45.96C37.648 45.7467 37.6907 45.608 37.776 45.544V45.704C37.776 46.0987 38 46.296 38.448 46.296C39.5467 46.296 40.752 45.5067 42.064 43.928C41.8613 43.8427 41.6747 43.7467 41.504 43.64C40.4907 44.9093 39.6053 45.544 38.848 45.544C38.752 45.544 38.704 45.5067 38.704 45.432C38.704 45.3893 38.7467 45.352 38.832 45.32C38.8853 45.32 38.944 45.3093 39.008 45.288C39.072 45.2773 39.1467 45.2667 39.232 45.256C39.8933 45.0533 40.6027 44.4827 41.36 43.544C40.8373 43.16 40.576 42.7493 40.576 42.312C40.576 41.7893 40.9387 41.304 41.664 40.856C42.1867 40.5253 42.7787 40.2747 43.44 40.104C43.9733 38.9307 44.3787 37.8 44.656 36.712C44.944 35.6133 45.1093 34.5627 45.152 33.56C44.992 33.496 44.8 33.464 44.576 33.464C43.808 33.464 43.0187 33.7733 42.208 34.392C41.3333 35.0533 40.896 35.7467 40.896 36.472C40.896 37.112 41.3547 37.672 42.272 38.152C42.304 38.1627 42.32 38.1947 42.32 38.248C42.32 38.3227 42.2827 38.36 42.208 38.36H42.144C41.664 38.1573 41.2587 37.9013 40.928 37.592C40.512 37.1867 40.304 36.7653 40.304 36.328C40.304 35.72 40.64 35.144 41.312 34.6C41.8453 34.1413 42.448 33.8053 43.12 33.592C43.632 33.4213 44.1493 33.336 44.672 33.336C44.7573 33.336 44.8373 33.3413 44.912 33.352C44.9973 33.352 45.0773 33.3573 45.152 33.368V32.808C45.152 32.7333 45.184 32.696 45.248 32.696C45.3013 32.696 45.328 32.9307 45.328 33.4C46.416 33.624 46.96 34.36 46.96 35.608C46.96 36.6533 46.5227 38.0293 45.648 39.736C45.9253 39.7147 46.288 39.6933 46.736 39.672C47.184 39.64 47.7173 39.6187 48.336 39.608C48.3787 39.608 48.448 39.608 48.544 39.608C48.64 39.5973 48.7573 39.5867 48.896 39.576C49.0133 39.5653 49.1147 39.56 49.2 39.56C49.2853 39.56 49.3653 39.56 49.44 39.56C49.504 39.56 49.536 39.576 49.536 39.608C49.536 39.704 49.424 39.768 49.2 39.8C49.04 39.8107 48.8533 39.8213 48.64 39.832C48.4267 39.832 48.1867 39.8427 47.92 39.864C46.9173 39.9067 46.1013 39.9867 45.472 40.104C44.6933 41.544 43.7707 42.8347 42.704 43.976C42.768 43.9867 42.8693 44.008 43.008 44.04C43.1573 44.072 43.3387 44.1093 43.552 44.152C43.6373 44.1733 43.68 44.2 43.68 44.232C43.68 44.2853 43.6267 44.312 43.52 44.312C43.3067 44.312 42.992 44.2427 42.576 44.104C41.0613 45.704 39.6853 46.504 38.448 46.504ZM50.624 45.752C49.4187 45.752 48.816 45.064 48.816 43.688C48.816 42.7813 49.088 41.56 49.632 40.024C49.6853 39.8747 49.872 39.416 50.192 38.648C50.512 37.88 50.9653 36.7867 51.552 35.368C51.6373 35.1867 51.7333 34.9573 51.84 34.68C51.9467 34.4027 52.0693 34.0827 52.208 33.72C52.304 33.4747 52.384 33.352 52.448 33.352C52.5227 33.352 52.56 33.4213 52.56 33.56C52.56 33.592 52.5547 33.624 52.544 33.656C52.544 33.688 52.5387 33.72 52.528 33.752C52.4853 33.9013 52.4 34.1733 52.272 34.568C52.144 34.952 51.9733 35.4533 51.76 36.072C51.4827 36.872 51.2427 37.592 51.04 38.232C50.8373 38.8613 50.6613 39.4107 50.512 39.88C50.064 41.48 49.84 42.7387 49.84 43.656C49.84 44.904 50.2187 45.528 50.976 45.528C51.2853 45.528 51.6587 45.3733 52.096 45.064C52.2453 44.9573 52.4 44.8293 52.56 44.68C52.7307 44.5413 52.912 44.3813 53.104 44.2C53.264 44.0507 53.3813 43.9387 53.456 43.864C53.5413 43.7893 53.584 43.752 53.584 43.752C53.5947 43.7627 53.6 43.768 53.6 43.768C53.6107 43.768 53.616 43.768 53.616 43.768C53.616 43.7893 53.6 43.8267 53.568 43.88C53.216 44.392 52.7947 44.8187 52.304 45.16C51.7173 45.5547 51.1573 45.752 50.624 45.752ZM43.648 40.056C43.808 40.0133 43.9733 39.976 44.144 39.944C44.3147 39.9013 44.496 39.8693 44.688 39.848C45.1573 38.8773 45.5147 38.008 45.76 37.24C46.0053 36.472 46.128 35.8107 46.128 35.256C46.128 34.4347 45.8613 33.896 45.328 33.64C45.328 34.568 45.184 35.5707 44.896 36.648C44.6187 37.7147 44.2027 38.8507 43.648 40.056ZM42.192 43.768C42.5973 43.2773 42.9867 42.744 43.36 42.168C43.7333 41.5813 44.0907 40.9627 44.432 40.312C44.2507 40.3547 44.0693 40.408 43.888 40.472C43.7067 40.5253 43.5253 40.5893 43.344 40.664C42.8213 41.7307 42.2613 42.6587 41.664 43.448C41.792 43.576 41.968 43.6827 42.192 43.768ZM41.536 43.336C41.8133 42.9627 42.08 42.5627 42.336 42.136C42.6027 41.7093 42.864 41.2507 43.12 40.76C41.8507 41.3253 41.216 41.9387 41.216 42.6C41.216 42.856 41.3227 43.1013 41.536 43.336ZM52.9133 43.304C52.1559 43.304 51.7773 42.8133 51.7773 41.832C51.7773 41.6827 51.7826 41.5227 51.7933 41.352C51.8146 41.1707 51.8466 40.9787 51.8893 40.776C51.8466 40.744 51.8039 40.7013 51.7613 40.648C51.7186 40.584 51.6759 40.5093 51.6333 40.424C51.6759 40.4347 51.7186 40.456 51.7613 40.488C51.8146 40.5093 51.8786 40.5307 51.9533 40.552C52.0706 40.0187 52.3906 39.4907 52.9133 38.968C53.4786 38.392 54.0119 38.104 54.5133 38.104C54.6306 38.104 54.6893 38.12 54.6893 38.152C54.6893 38.1733 54.6146 38.2267 54.4653 38.312C54.0706 38.5253 53.7026 38.856 53.3613 39.304C52.9986 39.752 52.7373 40.2 52.5773 40.648C52.5879 40.6587 52.5933 40.664 52.5933 40.664C52.5933 40.664 52.5986 40.6693 52.6093 40.68C53.1213 40.68 53.6546 40.4347 54.2093 39.944C54.7639 39.4533 55.0413 38.952 55.0413 38.44C55.0413 38.2907 54.9986 38.1467 54.9133 38.008C54.8386 37.88 54.7213 37.816 54.5613 37.816C54.3586 37.816 54.1186 37.896 53.8413 38.056C53.5746 38.2267 53.4253 38.312 53.3932 38.312C53.3719 38.312 53.3613 38.3067 53.3613 38.296C53.3613 38.168 53.5479 38.0293 53.9213 37.88C54.2413 37.752 54.4919 37.688 54.6733 37.688C54.9293 37.688 55.1319 37.7573 55.2812 37.896C55.4519 38.0347 55.5373 38.2267 55.5373 38.472C55.5373 39.0373 55.1693 39.5867 54.4333 40.12C53.7719 40.5893 53.1319 40.8507 52.5133 40.904C52.4279 41.16 52.3853 41.4053 52.3853 41.64C52.3853 42.5253 52.7053 42.968 53.3453 42.968C53.8359 42.968 54.3479 42.7547 54.8813 42.328C55.3293 41.976 55.7026 41.5493 56.0013 41.048C56.0973 40.8987 56.1773 40.824 56.2413 40.824C56.2519 40.824 56.2573 40.8347 56.2573 40.856C56.2573 40.8987 56.2146 40.9947 56.1293 41.144C55.7986 41.6667 55.3346 42.1467 54.7373 42.584C54.0866 43.064 53.4786 43.304 52.9133 43.304ZM56.736 43.208C56.6613 43.208 56.5653 43.176 56.448 43.112C56.3307 43.0267 56.272 42.9573 56.272 42.904C56.304 42.84 56.3307 42.7707 56.352 42.696C56.384 42.6213 56.4213 42.5467 56.464 42.472C56.656 42.0667 56.832 41.6613 56.992 41.256C57.152 40.8507 57.2853 40.4453 57.392 40.04C57.4987 39.656 57.552 39.2027 57.552 38.68C57.5307 38.7867 57.4613 38.9467 57.344 39.16C57.2373 39.3627 57.0933 39.6187 56.912 39.928C56.7413 40.2267 56.5867 40.4773 56.448 40.68C56.32 40.872 56.2133 41.0267 56.128 41.144C56.128 41.1547 56.1173 41.16 56.096 41.16C56.0427 41.16 56.016 41.1387 56.016 41.096C56.016 41.0747 56.0213 41.0587 56.032 41.048C56.1067 40.9307 56.1813 40.808 56.256 40.68C56.3413 40.552 56.432 40.4133 56.528 40.264C56.816 39.7947 57.0453 39.3733 57.216 39C57.3867 38.6267 57.5093 38.296 57.584 38.008C57.648 37.7307 57.7547 37.592 57.904 37.592C58.0747 37.592 58.16 37.8053 58.16 38.232C58.16 39 57.9147 39.944 57.424 41.064C58 40.3387 58.4 39.8587 58.624 39.624C59.232 38.9733 59.7067 38.648 60.048 38.648C60.3893 38.648 60.56 38.872 60.56 39.32C60.56 39.6293 60.4747 39.9013 60.304 40.136C60.1013 40.4347 59.9147 40.584 59.744 40.584C59.712 40.584 59.696 40.5627 59.696 40.52C59.696 40.52 59.7547 40.3867 59.872 40.12C59.9893 39.8533 60.048 39.624 60.048 39.432C60.048 39.144 59.9573 39 59.776 39C59.5307 39 59.1147 39.3253 58.528 39.976C58.0587 40.5093 57.7173 40.9627 57.504 41.336C57.4933 41.368 57.4453 41.496 57.36 41.72C57.2747 41.944 57.1467 42.2747 56.976 42.712C56.9547 42.776 56.928 42.8507 56.896 42.936C56.8747 43.0107 56.848 43.0907 56.816 43.176C56.7947 43.1973 56.768 43.208 56.736 43.208ZM60.9008 43.88C60.8261 43.88 60.7888 43.7893 60.7888 43.608C60.7888 43.4907 60.8048 43.3467 60.8368 43.176C60.5914 43.0267 60.4688 42.84 60.4688 42.616C60.4688 42.264 60.7514 41.9173 61.3168 41.576C61.4021 41.32 61.4981 41.0427 61.6048 40.744C61.7114 40.4453 61.8341 40.1307 61.9728 39.8C61.8768 39.896 61.7701 40.008 61.6528 40.136C61.5354 40.264 61.4021 40.4133 61.2528 40.584C61.1994 40.6373 61.1568 40.664 61.1248 40.664C61.0928 40.664 61.0768 40.6427 61.0768 40.6C61.0768 40.4293 61.4341 40.0187 62.1488 39.368C62.6074 38.2373 63.0661 37.144 63.5248 36.088C63.9834 35.032 64.4528 34.008 64.9328 33.016C64.9754 32.9307 65.0288 32.8293 65.0928 32.712C65.1568 32.584 65.2314 32.4347 65.3168 32.264C65.4341 32.0827 65.6528 31.992 65.9728 31.992C66.1754 31.992 66.2768 32.04 66.2768 32.136C66.2768 32.1467 66.2661 32.1733 66.2448 32.216C65.5941 33.4747 65.0021 34.6373 64.4688 35.704C63.9354 36.7707 63.4661 37.7413 63.0608 38.616C63.9141 38.008 64.5861 37.704 65.0768 37.704C65.5888 37.704 65.8448 38.056 65.8448 38.76C65.8448 39.368 65.6528 40.024 65.2688 40.728C65.5674 40.7387 65.7168 40.792 65.7168 40.888C65.7168 40.9307 65.6848 40.952 65.6208 40.952C65.5994 40.952 65.5674 40.952 65.5248 40.952C65.4821 40.952 65.4341 40.9467 65.3808 40.936C65.3274 40.9253 65.2794 40.92 65.2368 40.92C65.2048 40.92 65.1781 40.92 65.1568 40.92C64.7514 41.5813 64.2554 42.136 63.6688 42.584C62.9861 43.096 62.3034 43.352 61.6208 43.352C61.4074 43.352 61.2314 43.3307 61.0928 43.288C61.0821 43.3413 61.0714 43.3947 61.0608 43.448C61.0608 43.512 61.0554 43.5707 61.0448 43.624C61.0128 43.7947 60.9648 43.88 60.9008 43.88ZM61.8448 41.304C62.6661 40.9627 63.6101 40.7653 64.6768 40.712C64.8368 40.264 64.9168 39.72 64.9168 39.08C64.9168 38.5467 64.7354 38.28 64.3728 38.28C63.9994 38.28 63.4981 38.5253 62.8688 39.016C62.6661 39.4533 62.4794 39.864 62.3088 40.248C62.1381 40.632 61.9834 40.984 61.8448 41.304ZM61.5568 43.048C62.1754 43.048 62.7728 42.84 63.3488 42.424C63.9354 41.9973 64.3461 41.496 64.5807 40.92C63.5354 41.0053 62.5488 41.304 61.6208 41.816C61.5248 42.0613 61.4394 42.2853 61.3648 42.488C61.2901 42.6907 61.2261 42.8667 61.1728 43.016C61.2261 43.0267 61.2848 43.032 61.3488 43.032C61.4128 43.0427 61.4821 43.048 61.5568 43.048ZM60.9168 42.872C60.9381 42.7653 60.9648 42.6587 60.9967 42.552C61.0288 42.4347 61.0661 42.3067 61.1088 42.168C60.9168 42.3387 60.8208 42.504 60.8208 42.664C60.8208 42.7387 60.8528 42.808 60.9168 42.872ZM68.6695 43.224C68.3815 43.224 68.1575 43.0747 67.9975 42.776C67.8695 42.5307 67.8055 42.248 67.8055 41.928C67.8055 41.768 67.8162 41.592 67.8375 41.4C67.8695 41.1973 67.9122 40.9787 67.9655 40.744C67.2935 42.2373 66.6002 42.984 65.8855 42.984C65.4482 42.984 65.2295 42.7013 65.2295 42.136C65.2295 41.2293 65.6668 40.2907 66.5415 39.32C67.4268 38.328 68.3068 37.832 69.1815 37.832C69.5975 37.832 69.8055 38.0133 69.8055 38.376C69.8055 38.824 69.5068 39.272 68.9095 39.72C68.6002 40.488 68.4455 41.2773 68.4455 42.088C68.4455 42.696 68.5788 43 68.8455 43C69.1975 43 69.8375 42.328 70.7655 40.984C70.8295 40.8987 70.8775 40.856 70.9095 40.856C70.9415 40.856 70.9575 40.8773 70.9575 40.92C70.9575 40.9733 70.9362 41.0267 70.8935 41.08C69.9335 42.5093 69.1922 43.224 68.6695 43.224ZM65.9495 42.488C66.6215 42.488 67.2722 41.7413 67.9015 40.248C67.8162 40.2693 67.7362 40.2907 67.6615 40.312C67.5975 40.3227 67.5388 40.328 67.4855 40.328C67.4428 40.328 67.4215 40.312 67.4215 40.28C67.4215 40.2267 67.4962 40.1733 67.6455 40.12C67.6988 40.088 67.7682 40.0507 67.8535 40.008C67.9388 39.9547 68.0348 39.896 68.1415 39.832C68.1628 39.6507 68.2748 39.416 68.4775 39.128C68.6802 38.8293 68.8722 38.68 69.0535 38.68C69.1175 38.68 69.1495 38.728 69.1495 38.824C69.1495 38.8987 69.1228 39.016 69.0695 39.176C69.2402 38.9413 69.3255 38.712 69.3255 38.488C69.3255 38.2427 69.2135 38.12 68.9895 38.12C68.4562 38.12 67.7575 38.6427 66.8935 39.688C66.0295 40.744 65.5975 41.5547 65.5975 42.12C65.5975 42.3653 65.7148 42.488 65.9495 42.488ZM72.0791 43C71.5458 43 71.2791 42.728 71.2791 42.184C71.2791 41.5973 71.5511 40.568 72.0951 39.096C71.8285 39.4587 71.6418 39.64 71.5351 39.64C71.5031 39.64 71.4871 39.624 71.4871 39.592C71.4871 39.5813 71.6258 39.3947 71.9031 39.032C72.0418 38.8507 72.1485 38.712 72.2231 38.616C72.3085 38.5093 72.3565 38.44 72.3671 38.408C72.4205 38.2587 72.4951 38.0667 72.5911 37.832C72.6871 37.5973 72.7991 37.3307 72.9271 37.032C73.1511 36.4987 73.3858 35.9653 73.6311 35.432C73.8871 34.888 74.1485 34.344 74.4151 33.8C74.5005 33.6187 74.6071 33.4 74.7351 33.144C74.8738 32.888 75.0338 32.5947 75.2151 32.264C75.3111 32.0827 75.5298 31.992 75.8711 31.992C76.0631 31.992 76.1591 32.04 76.1591 32.136C76.1591 32.168 76.1538 32.1947 76.1431 32.216C75.9511 32.6427 75.6631 33.2827 75.2791 34.136C75.2365 34.2213 75.1885 34.328 75.1351 34.456C75.0818 34.584 75.0125 34.7333 74.9271 34.904C74.8525 34.9467 74.7565 35.0267 74.6391 35.144C74.6391 35.144 74.5805 35.256 74.4631 35.48C74.3458 35.704 74.1751 36.0347 73.9511 36.472C72.4471 39.3947 71.6951 41.304 71.6951 42.2C71.6951 42.552 71.8125 42.728 72.0471 42.728C72.3138 42.728 72.6285 42.5787 72.9911 42.28C73.3645 41.9707 73.5405 41.816 73.5191 41.816C73.5618 41.816 73.5831 41.8373 73.5831 41.88C73.5831 41.9013 73.5618 41.944 73.5191 42.008C73.0498 42.6693 72.5698 43 72.0791 43ZM78.4413 44.648C77.9933 44.648 77.6039 44.5627 77.2733 44.392C76.8359 44.1893 76.6173 43.88 76.6173 43.464C76.6173 43.016 76.8573 42.6747 77.3372 42.44C77.5186 42.3333 77.7159 42.2587 77.9293 42.216C78.1533 42.1733 78.3826 42.152 78.6173 42.152C78.7133 42.152 78.7613 42.168 78.7613 42.2C78.7613 42.232 78.7133 42.248 78.6173 42.248C78.2119 42.248 77.8599 42.3333 77.5613 42.504C77.1773 42.696 76.9853 42.984 76.9853 43.368C76.9853 43.688 77.1293 43.9387 77.4173 44.12C77.6733 44.28 77.9666 44.36 78.2973 44.36C79.2146 44.36 80.0466 43.944 80.7933 43.112C81.0493 42.8347 81.3106 42.4933 81.5773 42.088C81.8439 41.6827 82.1106 41.2133 82.3773 40.68C82.4946 40.4453 82.6546 40.1147 82.8573 39.688C83.0599 39.2507 83.3053 38.7067 83.5933 38.056C83.8386 37.5013 84.0679 37.0107 84.2812 36.584C84.4946 36.1573 84.6866 35.7893 84.8573 35.48L83.7853 35.24C83.6786 35.7093 83.5506 36.1947 83.4013 36.696C83.2626 37.1867 83.0973 37.6933 82.9053 38.216C82.7026 38.8027 82.4839 39.352 82.2493 39.864C82.0146 40.376 81.7746 40.856 81.5293 41.304C80.6973 42.7547 79.9346 43.48 79.2413 43.48C79.0173 43.48 78.9053 43.4267 78.9053 43.32C78.9053 43.2667 78.9319 43.24 78.9853 43.24C79.0066 43.24 79.0279 43.24 79.0493 43.24C79.0706 43.2507 79.0919 43.256 79.1133 43.256C79.1559 43.2773 79.1986 43.288 79.2413 43.288C80.0839 43.288 81.0066 42.1307 82.0093 39.816C82.3613 39.0267 82.6706 38.248 82.9373 37.48C83.2039 36.712 83.4279 35.9547 83.6093 35.208C82.0199 34.8667 80.8146 34.696 79.9933 34.696C78.2759 34.696 77.4173 35.288 77.4173 36.472C77.4173 37.2613 77.8706 37.9653 78.7773 38.584C78.8199 38.616 78.8413 38.6427 78.8413 38.664C78.8413 38.696 78.8199 38.712 78.7773 38.712C78.7666 38.712 78.7399 38.7013 78.6973 38.68C77.5026 37.9973 76.9053 37.1813 76.9053 36.232C76.9053 35.56 77.2306 35.064 77.8813 34.744C78.1266 34.6267 78.4039 34.5413 78.7133 34.488C79.0226 34.424 79.3693 34.392 79.7533 34.392C80.2013 34.392 80.7506 34.4347 81.4013 34.52C82.0519 34.6053 82.8146 34.7333 83.6893 34.904C83.7213 34.744 83.7479 34.5733 83.7693 34.392C83.8013 34.2 83.8279 33.9973 83.8493 33.784C83.8706 33.6773 83.9026 33.608 83.9453 33.576C83.9773 33.5867 83.9933 33.6933 83.9933 33.896C83.9933 34.024 83.9826 34.1787 83.9613 34.36C83.9399 34.5307 83.9079 34.7227 83.8653 34.936L85.0333 35.16C85.9826 33.5707 87.0279 32.776 88.1693 32.776C88.8626 32.776 89.2093 33.064 89.2093 33.64C89.2093 33.7467 89.1879 33.8 89.1453 33.8C89.1026 33.8 89.0813 33.7573 89.0813 33.672C89.0813 33.256 88.8039 33.048 88.2493 33.048C87.4813 33.048 86.6706 33.8 85.8173 35.304C86.3719 35.4107 86.8519 35.4907 87.2573 35.544C87.6733 35.5867 88.0199 35.608 88.2973 35.608C89.3319 35.608 89.8493 35.352 89.8493 34.84C89.8493 34.7653 89.8386 34.696 89.8173 34.632C89.7746 34.5893 89.7533 34.552 89.7533 34.52C89.7533 34.488 89.7639 34.472 89.7853 34.472C89.8493 34.472 89.9133 34.5627 89.9773 34.744C90.0199 34.872 90.0413 34.9893 90.0413 35.096C90.0413 35.7467 89.5186 36.072 88.4733 36.072C87.8759 36.072 86.9213 35.928 85.6093 35.64C85.5346 35.8 85.3746 36.1253 85.1293 36.616C84.8839 37.1067 84.5639 37.7627 84.1693 38.584C83.7426 39.48 83.3426 40.248 82.9693 40.888C82.6066 41.528 82.2759 42.0453 81.9773 42.44C80.8786 43.912 79.6999 44.648 78.4413 44.648ZM86.6008 43.304C85.8434 43.304 85.4648 42.8133 85.4648 41.832C85.4648 41.6827 85.4701 41.5227 85.4808 41.352C85.5021 41.1707 85.5341 40.9787 85.5768 40.776C85.5341 40.744 85.4914 40.7013 85.4488 40.648C85.4061 40.584 85.3634 40.5093 85.3208 40.424C85.3634 40.4347 85.4061 40.456 85.4488 40.488C85.5021 40.5093 85.5661 40.5307 85.6408 40.552C85.7581 40.0187 86.0781 39.4907 86.6008 38.968C87.1661 38.392 87.6994 38.104 88.2008 38.104C88.3181 38.104 88.3768 38.12 88.3768 38.152C88.3768 38.1733 88.3021 38.2267 88.1528 38.312C87.7581 38.5253 87.3901 38.856 87.0488 39.304C86.6861 39.752 86.4248 40.2 86.2648 40.648C86.2754 40.6587 86.2808 40.664 86.2808 40.664C86.2808 40.664 86.2861 40.6693 86.2968 40.68C86.8088 40.68 87.3421 40.4347 87.8968 39.944C88.4514 39.4533 88.7288 38.952 88.7288 38.44C88.7288 38.2907 88.6861 38.1467 88.6008 38.008C88.5261 37.88 88.4088 37.816 88.2488 37.816C88.0461 37.816 87.8061 37.896 87.5288 38.056C87.2621 38.2267 87.1128 38.312 87.0807 38.312C87.0594 38.312 87.0488 38.3067 87.0488 38.296C87.0488 38.168 87.2354 38.0293 87.6088 37.88C87.9288 37.752 88.1794 37.688 88.3608 37.688C88.6168 37.688 88.8194 37.7573 88.9688 37.896C89.1394 38.0347 89.2248 38.2267 89.2248 38.472C89.2248 39.0373 88.8568 39.5867 88.1208 40.12C87.4594 40.5893 86.8194 40.8507 86.2008 40.904C86.1154 41.16 86.0728 41.4053 86.0728 41.64C86.0728 42.5253 86.3928 42.968 87.0328 42.968C87.5234 42.968 88.0354 42.7547 88.5688 42.328C89.0168 41.976 89.3901 41.5493 89.6888 41.048C89.7848 40.8987 89.8648 40.824 89.9288 40.824C89.9394 40.824 89.9448 40.8347 89.9448 40.856C89.9448 40.8987 89.9021 40.9947 89.8168 41.144C89.4861 41.6667 89.0221 42.1467 88.4248 42.584C87.7741 43.064 87.1661 43.304 86.6008 43.304ZM92.9195 43.224C92.6315 43.224 92.4075 43.0747 92.2475 42.776C92.1195 42.5307 92.0555 42.248 92.0555 41.928C92.0555 41.768 92.0662 41.592 92.0875 41.4C92.1195 41.1973 92.1622 40.9787 92.2155 40.744C91.5435 42.2373 90.8502 42.984 90.1355 42.984C89.6982 42.984 89.4795 42.7013 89.4795 42.136C89.4795 41.2293 89.9168 40.2907 90.7915 39.32C91.6768 38.328 92.5568 37.832 93.4315 37.832C93.8475 37.832 94.0555 38.0133 94.0555 38.376C94.0555 38.824 93.7568 39.272 93.1595 39.72C92.8502 40.488 92.6955 41.2773 92.6955 42.088C92.6955 42.696 92.8288 43 93.0955 43C93.4475 43 94.0875 42.328 95.0155 40.984C95.0795 40.8987 95.1275 40.856 95.1595 40.856C95.1915 40.856 95.2075 40.8773 95.2075 40.92C95.2075 40.9733 95.1862 41.0267 95.1435 41.08C94.1835 42.5093 93.4422 43.224 92.9195 43.224ZM90.1995 42.488C90.8715 42.488 91.5222 41.7413 92.1515 40.248C92.0662 40.2693 91.9862 40.2907 91.9115 40.312C91.8475 40.3227 91.7888 40.328 91.7355 40.328C91.6928 40.328 91.6715 40.312 91.6715 40.28C91.6715 40.2267 91.7462 40.1733 91.8955 40.12C91.9488 40.088 92.0182 40.0507 92.1035 40.008C92.1888 39.9547 92.2848 39.896 92.3915 39.832C92.4128 39.6507 92.5248 39.416 92.7275 39.128C92.9302 38.8293 93.1222 38.68 93.3035 38.68C93.3675 38.68 93.3995 38.728 93.3995 38.824C93.3995 38.8987 93.3728 39.016 93.3195 39.176C93.4902 38.9413 93.5755 38.712 93.5755 38.488C93.5755 38.2427 93.4635 38.12 93.2395 38.12C92.7062 38.12 92.0075 38.6427 91.1435 39.688C90.2795 40.744 89.8475 41.5547 89.8475 42.12C89.8475 42.3653 89.9648 42.488 90.1995 42.488Z" fill="#397C93"/>
<defs>
<clipPath id="clip0_7_43">
<rect width="34" height="45" fill="white" transform="translate(0 2.5)"/>
</clipPath>
</defs>
</svg>
